<?xml version="1.0" standalone="no"?>
<!DOCTYPE svg PUBLIC "-//W3C//DTD SVG 20010904//EN"
        "http://www.w3.org/TR/2001/REC-SVG-20010904/DTD/svg10.dtd">
<svg version="1.0" xmlns="http://www.w3.org/2000/svg"
     width="512.000000pt" height="512.000000pt" viewBox="0 0 512.000000 512.000000"
     preserveAspectRatio="xMidYMid meet">

    <g transform="translate(0.000000,512.000000) scale(0.100000,-0.100000)"
       fill="#000000" stroke="none">
        <path d="M2255 4153 c-16 -2 -122 -10 -235 -18 -210 -16 -311 -27 -390 -44
-25 -6 -90 -17 -145 -26 -99 -16 -137 -25 -225 -51 -25 -7 -76 -21 -115 -30
-38 -10 -74 -20 -80 -24 -5 -4 -21 -10 -35 -13 -71 -15 -274 -102 -395 -170
-67 -37 -197 -132 -263 -192 -65 -59 -163 -190 -196 -260 -10 -22 -24 -51 -31
-65 -7 -14 -24 -65 -39 -115 -15 -49 -32 -105 -37 -123 -26 -81 -62 -426 -61
-587 0 -170 34 -529 62 -651 36 -157 60 -245 79 -289 5 -11 17 -40 27 -65 25
-64 96 -169 141 -210 43 -40 137 -100 156 -100 7 0 17 -4 23 -9 5 -5 54 -17
109 -26 108 -19 133 -18 615 9 936 54 1577 55 2610 6 124 -6 275 -15 335 -22
113 -11 276 -6 378 11 77 13 191 72 250 129 47 46 137 170 137 190 0 5 13 40
29 78 31 73 41 107 65 219 9 39 21 93 27 120 33 143 52 440 46 710 -6 260 -23
388 -74 560 -8 28 -19 68 -26 90 -28 97 -126 262 -214 360 -86 95 -259 214
-423 291 -41 19 -84 39 -95 44 -49 24 -248 93 -318 110 -23 6 -64 17 -92 25
-89 25 -128 34 -225 50 -52 9 -129 22 -170 30 -207 38 -607 65 -929 63 -135 0
-259 -3 -276 -5z m679 -623 c163 -12 392 -38 453 -51 23 -5 56 -9 72 -9 34 0
175 -25 236 -42 38 -10 64 -16 168 -36 23 -5 58 -14 77 -20 19 -7 76 -25 125
-41 103 -34 140 -49 245 -99 102 -49 154 -85 230 -162 61 -61 75 -83 116 -177
10 -21 20 -45 24 -53 7 -15 30 -117 50 -225 18 -98 24 -339 11 -455 -7 -58
-16 -139 -20 -180 -17 -147 -83 -383 -124 -435 -4 -5 -17 -22 -28 -38 -28 -37
-97 -83 -155 -103 -40 -13 -80 -15 -248 -11 -283 7 -784 25 -1026 37 -262 13
-940 13 -1185 0 -220 -12 -717 -30 -1017 -37 -230 -6 -259 -1 -342 57 -119 81
-185 272 -235 680 -27 212 -4 489 57 690 25 83 89 200 135 248 44 45 176 137
237 165 127 57 162 71 239 96 114 37 183 56 256 71 33 7 76 17 95 22 19 6 55
14 80 18 118 21 171 29 245 39 44 5 132 17 195 25 63 9 171 20 240 24 182 13
632 14 794 2z"/>
        <path d="M2190 3199 c-204 -11 -500 -44 -606 -67 -27 -6 -85 -18 -129 -27 -71
-14 -193 -48 -280 -77 -83 -29 -217 -105 -264 -150 -47 -46 -64 -73 -102 -168
-22 -55 -19 -291 5 -355 48 -130 85 -179 158 -209 44 -19 154 -21 278 -5 84
10 196 17 565 38 625 35 753 38 1100 21 193 -10 311 -16 715 -40 80 -5 186
-13 235 -19 137 -16 233 -14 280 8 47 21 111 82 120 114 3 12 10 31 15 42 42
95 55 306 24 395 -25 76 -52 127 -85 165 -39 44 -160 117 -249 148 -36 13 -81
29 -100 36 -60 22 -130 40 -240 62 -30 6 -84 17 -120 24 -295 60 -874 88
-1320 64z m765 -39 c295 -24 645 -75 759 -109 17 -6 60 -17 96 -26 36 -10 74
-21 85 -25 11 -5 38 -16 60 -25 220 -89 296 -172 318 -348 21 -173 -25 -362
-100 -415 -49 -34 -125 -44 -253 -33 -479 42 -821 56 -1360 56 -549 0 -815
-11 -1372 -56 -130 -10 -203 0 -250 34 -57 42 -108 199 -108 334 0 70 21 173
47 223 43 87 147 157 338 228 60 23 279 78 345 88 19 3 76 11 125 19 193 30
237 35 376 45 79 6 149 13 154 15 24 8 621 4 740 -5z"/>
        <path d="M2205 3099 c-104 -4 -218 -13 -251 -19 -34 -5 -78 -10 -97 -10 -20 0
-72 -6 -114 -14 -43 -8 -123 -22 -178 -31 -116 -19 -175 -33 -327 -82 -90 -28
-204 -89 -242 -129 -80 -86 -119 -230 -96 -356 7 -40 16 -79 20 -88 4 -8 14
-28 21 -43 7 -16 31 -43 53 -60 40 -31 40 -32 153 -30 63 0 196 8 296 17 428
38 509 41 1097 41 569 0 764 -6 1085 -36 214 -20 371 -28 419 -22 65 8 124 64
151 143 25 75 25 234 0 309 -36 107 -161 207 -320 254 -148 45 -223 63 -340
82 -55 9 -138 22 -185 30 -293 47 -697 63 -1145 44z"/>
    </g>
</svg>
